<svg xmlns="http://www.w3.org/2000/svg" viewBox="555 20 155 170" fill="none"><defs>
    <filter id="w1" x="-20%" y="-20%" width="140%" height="140%">
      <feTurbulence type="fractalNoise" baseFrequency="0.06" numOctaves="3" seed="9" result="n"/>
      <feDisplacementMap in="SourceGraphic" in2="n" scale="6"/>
      <feGaussianBlur stdDeviation="0.5"/>
    </filter>
    <filter id="ink" x="-20%" y="-20%" width="140%" height="140%">
      <feTurbulence type="fractalNoise" baseFrequency="0.12" numOctaves="2" seed="3" result="n"/>
      <feDisplacementMap in="SourceGraphic" in2="n" scale="2.5"/>
    </filter>
  </defs>  <g transform="translate(560 58)">
    <g filter="url(#w1)">
      <path d="M14 120 L 14 58 L 130 58 L 130 120 Z" fill="#efd9b8" opacity="0.7"/>
      <path d="M8 58 L 72 18 L 136 58 Z" fill="#e3b477" opacity="0.65"/>
      <path d="M56 120 L 56 84 C 56 72, 88 72, 88 84 L 88 120 Z" fill="#b98a56" opacity="0.5"/>
    </g>
    <g filter="url(#ink)" stroke="#6b4a2f" stroke-width="3" stroke-linecap="round" stroke-linejoin="round" fill="none">
      <path d="M12 122 L 12 58 L 132 58 L 132 122 M 4 122 L 140 122"/>
      <path d="M4 58 L 72 14 L 140 58"/>
      <path d="M56 122 L 56 86 C 56 74, 88 74, 88 86 L 88 122" stroke-width="2.6"/>
      <path d="M26 74 L 26 96 M 40 74 L 40 96 M 104 74 L 104 96 M 118 74 L 118 96" stroke-width="2.2"/>
      <path d="M30 40 L 42 40 M 30 46 L 42 46 M 30 34 L 42 34" stroke-width="1.8" opacity="0.0"/>
    </g>
    <!-- drapeaux -->
    <g filter="url(#ink)">
      <path d="M46 14 L 46 -12" stroke="#6b4a2f" stroke-width="2.2" stroke-linecap="round"/>
      <path d="M46 -12 L 66 -8 L 46 -2 Z" fill="#a91e22" opacity="0.85"/>
      <path d="M98 14 L 98 -12" stroke="#6b4a2f" stroke-width="2.2" stroke-linecap="round"/>
      <path d="M98 -12 L 118 -8 L 98 -2 Z" fill="#3c5a8a" opacity="0.8"/>
    </g>
    <!-- coeur au fronton -->
    <g filter="url(#ink)">
      <path d="M72 36 C 68 30, 60 32, 60 39 C 60 45, 68 50, 72 53 C 76 50, 84 45, 84 39 C 84 32, 76 30, 72 36 Z" fill="#a91e22" opacity="0.8"/>
    </g>
  </g>

  </svg>