<svg xmlns="http://www.w3.org/2000/svg" viewBox="0 0 1440 210" preserveAspectRatio="xMidYMax slice" fill="none">
  <defs>
    <filter id="soft" x="-5%" y="-5%" width="110%" height="110%">
      <feTurbulence type="fractalNoise" baseFrequency="0.02" numOctaves="2" seed="4" result="n"/>
      <feDisplacementMap in="SourceGraphic" in2="n" scale="6"/>
      <feGaussianBlur stdDeviation="1"/>
    </filter>
    <linearGradient id="cityFar" x1="0" y1="0" x2="0" y2="1">
      <stop offset="0%" stop-color="#eeb98a" stop-opacity="0.35"/>
      <stop offset="100%" stop-color="#e3a06b" stop-opacity="0.5"/>
    </linearGradient>
    <linearGradient id="cityNear" x1="0" y1="0" x2="0" y2="1">
      <stop offset="0%" stop-color="#cf8a55" stop-opacity="0.55"/>
      <stop offset="100%" stop-color="#b9713d" stop-opacity="0.75"/>
    </linearGradient>
  </defs>
  <g filter="url(#soft)">
    <!-- far city with St Peter's dome -->
    <path fill="url(#cityFar)" d="M0 210 L0 150 L60 150 L60 130 L110 130 L110 150 L180 150 L180 120 L230 120 L230 150 L300 150
      L300 138 L330 138 L330 112
      C 330 84 355 64 385 64 C 415 64 440 84 440 112 L440 138 L470 138 L470 150
      L540 150 L540 126 L600 126 L600 150 L680 150 L680 132 L740 132 L740 150 L820 150 L820 122 L870 122 L870 150 L960 150 L960 134 L1030 134 L1030 150 L1440 150 L1440 210 Z"/>
    <!-- dome lantern -->
    <rect x="378" y="46" width="14" height="20" rx="4" fill="url(#cityFar)"/>
    <line x1="385" y1="30" x2="385" y2="48" stroke="#cf8a55" stroke-width="3" opacity="0.5"/>
    <!-- near band with colosseum -->
    <path fill="url(#cityNear)" d="M0 210 L0 176 L150 176 L150 160 L260 160 L260 176 L420 176 L420 166 L560 166 L560 176 L900 176 L900 96
      C 900 96 935 78 1020 78 C 1105 78 1140 96 1140 96 L1140 176 L1300 176 L1300 162 L1380 162 L1380 176 L1440 176 L1440 210 Z"/>
    <!-- colosseum arches -->
    <g fill="#fbf6ec" opacity="0.55">
      <ellipse cx="930" cy="122" rx="9" ry="13"/><ellipse cx="962" cy="118" rx="9" ry="13"/>
      <ellipse cx="994" cy="116" rx="9" ry="13"/><ellipse cx="1026" cy="116" rx="9" ry="13"/>
      <ellipse cx="1058" cy="118" rx="9" ry="13"/><ellipse cx="1090" cy="122" rx="9" ry="13"/>
      <ellipse cx="930" cy="156" rx="9" ry="13"/><ellipse cx="962" cy="152" rx="9" ry="13"/>
      <ellipse cx="994" cy="150" rx="9" ry="13"/><ellipse cx="1026" cy="150" rx="9" ry="13"/>
      <ellipse cx="1058" cy="152" rx="9" ry="13"/><ellipse cx="1090" cy="156" rx="9" ry="13"/>
    </g>
  </g>
</svg>
